<svg xmlns="http://www.w3.org/2000/svg" viewBox="0 0 128 128" role="img" aria-label="Kirsikat">
  <title>Kirsikat</title>
  <rect width="128" height="128" fill="none"/>
  
  <!-- Varsi ja lehdet -->
  <path d="M64 36 C72 28, 88 28, 96 36" 
        fill="none" 
        stroke="#000000" 
        stroke-width="6" 
        stroke-linecap="round"/>
  <path d="M88 34c10-6 18 2 18 2s-6 12-16 9-8-9-2-11z" fill="#43a047"/>
  <path d="M64 36 C52 28, 36 28, 28 36" 
        fill="none" 
        stroke="#000000" 
        stroke-width="6" 
        stroke-linecap="round"/>

<!-- Varsi  vasemmalle -->
<path d="M48 68 C48 60, 56 52, 64 36" 
      fill="none" 
      stroke="#000000" 
      stroke-width="6" 
      stroke-linecap="round"/>

<!-- Varsi oikealle -->
<path d="M80 68 C80 60, 72 52, 64 36" 
      fill="none" 
      stroke="#000000" 
      stroke-width="6" 
      stroke-linecap="round"/>


  <!-- Hedelmä -->
  <circle cx="48" cy="84" r="16" fill="#d32f2f"/>
  <circle cx="80" cy="84" r="16" fill="#d32f2f"/>
  <ellipse cx="42" cy="78" rx="6" ry="4" fill="#ffffff" opacity="0.25"/>
  <ellipse cx="74" cy="78" rx="6" ry="4" fill="#ffffff" opacity="0.25"/>
</svg>
